<?xml version="1.0" encoding="UTF-8" standalone="no"?>
<!DOCTYPE svg PUBLIC "-//W3C//DTD SVG 1.1//EN"
 "http://www.w3.org/Graphics/SVG/1.1/DTD/svg11.dtd">
<!-- Generated by graphviz version 2.47.0 (20210316.0004)
 -->
<!-- Title: dependencies Pages: 1 -->
<svg width="604pt" height="211pt"
 viewBox="0.00 0.00 604.00 211.00" xmlns="http://www.w3.org/2000/svg" xmlns:xlink="http://www.w3.org/1999/xlink">
<g id="graph0" class="graph" transform="scale(1 1) rotate(0) translate(4 207)">
<title>dependencies</title>
<polygon fill="white" stroke="transparent" points="-4,4 -4,-207 600,-207 600,4 -4,4"/>
<text text-anchor="start" x="277.01" y="-42.4" font-family="Times-12" font-weight="bold" font-size="14.00">Legend</text>
<polygon fill="#ffffb3" stroke="transparent" points="64,-10 64,-30 84,-30 84,-10 64,-10"/>
<text text-anchor="start" x="87.63" y="-15.4" font-family="Times-12" font-size="14.00"> &#160;Declarations</text>
<polygon fill="#8dd3c7" stroke="transparent" points="177,-10 177,-30 197,-30 197,-10 177,-10"/>
<text text-anchor="start" x="200.73" y="-15.4" font-family="Times-12" font-size="14.00"> &#160;Module</text>
<polygon fill="#80b1d3" stroke="transparent" points="263,-10 263,-30 283,-30 283,-10 263,-10"/>
<text text-anchor="start" x="286.78" y="-15.4" font-family="Times-12" font-size="14.00"> &#160;Bootstrap</text>
<polygon fill="#fdb462" stroke="transparent" points="360,-10 360,-30 380,-30 380,-10 360,-10"/>
<text text-anchor="start" x="383.67" y="-15.4" font-family="Times-12" font-size="14.00"> &#160;Providers</text>
<polygon fill="#fb8072" stroke="transparent" points="456,-10 456,-30 476,-30 476,-10 456,-10"/>
<text text-anchor="start" x="479.73" y="-15.4" font-family="Times-12" font-size="14.00"> &#160;Exports</text>
<g id="clust1" class="cluster">
<title>cluster_HomePageModule</title>
<polygon fill="none" stroke="black" stroke-dasharray="1,5" points="8,-70 8,-195 588,-195 588,-70 8,-70"/>
</g>
<g id="clust2" class="cluster">
<title>cluster_HomePageModule_declarations</title>
<polygon fill="none" stroke="black" points="322,-78 322,-130 580,-130 580,-78 322,-78"/>
</g>
<g id="clust5" class="cluster">
<title>cluster_HomePageModule_imports</title>
<polygon fill="none" stroke="black" points="16,-78 16,-130 314,-130 314,-78 16,-78"/>
</g>
<!-- HomePage -->
<g id="node1" class="node">
<title>HomePage</title>
<polygon fill="#ffffb3" stroke="black" points="571.92,-122 494.08,-122 494.08,-86 571.92,-86 571.92,-122"/>
<text text-anchor="middle" x="533" y="-99.8" font-family="Times,serif" font-size="14.00">HomePage</text>
</g>
<!-- HomePageModule -->
<g id="node3" class="node">
<title>HomePageModule</title>
<polygon fill="#8dd3c7" stroke="black" points="373.47,-187 370.47,-191 349.47,-191 346.47,-187 252.53,-187 252.53,-151 373.47,-151 373.47,-187"/>
<text text-anchor="middle" x="313" y="-164.8" font-family="Times,serif" font-size="14.00">HomePageModule</text>
</g>
<!-- HomePage&#45;&gt;HomePageModule -->
<g id="edge1" class="edge">
<title>HomePage&#45;&gt;HomePageModule</title>
<path fill="none" stroke="black" d="M533,-122.11C533,-141.34 533,-169 533,-169 533,-169 383.7,-169 383.7,-169"/>
<polygon fill="black" stroke="black" points="383.7,-165.5 373.7,-169 383.7,-172.5 383.7,-165.5"/>
</g>
<!-- MealResultComponent -->
<g id="node2" class="node">
<title>MealResultComponent</title>
<polygon fill="#ffffb3" stroke="black" points="475.87,-122 330.13,-122 330.13,-86 475.87,-86 475.87,-122"/>
<text text-anchor="middle" x="403" y="-99.8" font-family="Times,serif" font-size="14.00">MealResultComponent</text>
</g>
<!-- MealResultComponent&#45;&gt;HomePageModule -->
<g id="edge2" class="edge">
<title>MealResultComponent&#45;&gt;HomePageModule</title>
<path fill="none" stroke="black" d="M351.77,-122.11C351.77,-122.11 351.77,-140.99 351.77,-140.99"/>
<polygon fill="black" stroke="black" points="348.27,-140.99 351.77,-150.99 355.27,-140.99 348.27,-140.99"/>
</g>
<!-- HomePageRoutingModule -->
<g id="node4" class="node">
<title>HomePageRoutingModule</title>
<polygon fill="#8dd3c7" stroke="black" points="306.09,-122 303.09,-126 282.09,-126 279.09,-122 139.91,-122 139.91,-86 306.09,-86 306.09,-122"/>
<text text-anchor="middle" x="223" y="-99.8" font-family="Times,serif" font-size="14.00">HomePageRoutingModule</text>
</g>
<!-- HomePageRoutingModule&#45;&gt;HomePageModule -->
<g id="edge3" class="edge">
<title>HomePageRoutingModule&#45;&gt;HomePageModule</title>
<path fill="none" stroke="black" d="M279.28,-122.11C279.28,-122.11 279.28,-140.99 279.28,-140.99"/>
<polygon fill="black" stroke="black" points="275.78,-140.99 279.28,-150.99 282.78,-140.99 275.78,-140.99"/>
</g>
<!-- SharedModule -->
<g id="node5" class="node">
<title>SharedModule</title>
<polygon fill="#8dd3c7" stroke="black" points="122.42,-122 119.42,-126 98.42,-126 95.42,-122 23.58,-122 23.58,-86 122.42,-86 122.42,-122"/>
<text text-anchor="middle" x="73" y="-99.8" font-family="Times,serif" font-size="14.00">SharedModule</text>
</g>
<!-- SharedModule&#45;&gt;HomePageModule -->
<g id="edge4" class="edge">
<title>SharedModule&#45;&gt;HomePageModule</title>
<path fill="none" stroke="black" d="M73,-122.11C73,-141.34 73,-169 73,-169 73,-169 242.44,-169 242.44,-169"/>
<polygon fill="black" stroke="black" points="242.44,-172.5 252.44,-169 242.44,-165.5 242.44,-172.5"/>
</g>
</g>
</svg>
