<?xml version="1.0" encoding="UTF-8" standalone="no"?>
<!DOCTYPE svg PUBLIC "-//W3C//DTD SVG 1.1//EN"
 "http://www.w3.org/Graphics/SVG/1.1/DTD/svg11.dtd">
<!-- Generated by graphviz version 2.47.0 (20210316.0004)
 -->
<!-- Title: dependencies Pages: 1 -->
<svg width="504pt" height="211pt"
 viewBox="0.00 0.00 504.00 211.00" xmlns="http://www.w3.org/2000/svg" xmlns:xlink="http://www.w3.org/1999/xlink">
<g id="graph0" class="graph" transform="scale(1 1) rotate(0) translate(4 207)">
<title>dependencies</title>
<polygon fill="white" stroke="transparent" points="-4,4 -4,-207 500,-207 500,4 -4,4"/>
<text text-anchor="start" x="227.01" y="-42.4" font-family="Times-12" font-weight="bold" font-size="14.00">Legend</text>
<polygon fill="#ffffb3" stroke="transparent" points="14,-10 14,-30 34,-30 34,-10 14,-10"/>
<text text-anchor="start" x="37.63" y="-15.4" font-family="Times-12" font-size="14.00"> &#160;Declarations</text>
<polygon fill="#8dd3c7" stroke="transparent" points="127,-10 127,-30 147,-30 147,-10 127,-10"/>
<text text-anchor="start" x="150.73" y="-15.4" font-family="Times-12" font-size="14.00"> &#160;Module</text>
<polygon fill="#80b1d3" stroke="transparent" points="213,-10 213,-30 233,-30 233,-10 213,-10"/>
<text text-anchor="start" x="236.78" y="-15.4" font-family="Times-12" font-size="14.00"> &#160;Bootstrap</text>
<polygon fill="#fdb462" stroke="transparent" points="310,-10 310,-30 330,-30 330,-10 310,-10"/>
<text text-anchor="start" x="333.67" y="-15.4" font-family="Times-12" font-size="14.00"> &#160;Providers</text>
<polygon fill="#fb8072" stroke="transparent" points="406,-10 406,-30 426,-30 426,-10 406,-10"/>
<text text-anchor="start" x="429.73" y="-15.4" font-family="Times-12" font-size="14.00"> &#160;Exports</text>
<g id="clust1" class="cluster">
<title>cluster_NutrientsPageModule</title>
<polygon fill="none" stroke="black" stroke-dasharray="1,5" points="80,-70 80,-195 416,-195 416,-70 80,-70"/>
</g>
<g id="clust4" class="cluster">
<title>cluster_NutrientsPageModule_imports</title>
<polygon fill="none" stroke="black" points="208,-78 208,-130 408,-130 408,-78 208,-78"/>
</g>
<g id="clust2" class="cluster">
<title>cluster_NutrientsPageModule_declarations</title>
<polygon fill="none" stroke="black" points="88,-78 88,-130 200,-130 200,-78 88,-78"/>
</g>
<!-- NutrientsPage -->
<g id="node1" class="node">
<title>NutrientsPage</title>
<polygon fill="#ffffb3" stroke="black" points="191.81,-122 96.19,-122 96.19,-86 191.81,-86 191.81,-122"/>
<text text-anchor="middle" x="144" y="-99.8" font-family="Times,serif" font-size="14.00">NutrientsPage</text>
</g>
<!-- NutrientsPageModule -->
<g id="node2" class="node">
<title>NutrientsPageModule</title>
<polygon fill="#8dd3c7" stroke="black" points="301.36,-187 298.36,-191 277.36,-191 274.36,-187 162.64,-187 162.64,-151 301.36,-151 301.36,-187"/>
<text text-anchor="middle" x="232" y="-164.8" font-family="Times,serif" font-size="14.00">NutrientsPageModule</text>
</g>
<!-- NutrientsPage&#45;&gt;NutrientsPageModule -->
<g id="edge1" class="edge">
<title>NutrientsPage&#45;&gt;NutrientsPageModule</title>
<path fill="none" stroke="black" d="M177.11,-122.11C177.11,-122.11 177.11,-140.99 177.11,-140.99"/>
<polygon fill="black" stroke="black" points="173.61,-140.99 177.11,-150.99 180.61,-140.99 173.61,-140.99"/>
</g>
<!-- NutrientsPageRoutingModule -->
<g id="node3" class="node">
<title>NutrientsPageRoutingModule</title>
<polygon fill="#8dd3c7" stroke="black" points="399.98,-122 396.98,-126 375.98,-126 372.98,-122 216.02,-122 216.02,-86 399.98,-86 399.98,-122"/>
<text text-anchor="middle" x="308" y="-99.8" font-family="Times,serif" font-size="14.00">NutrientsPageRoutingModule</text>
</g>
<!-- NutrientsPageRoutingModule&#45;&gt;NutrientsPageModule -->
<g id="edge2" class="edge">
<title>NutrientsPageRoutingModule&#45;&gt;NutrientsPageModule</title>
<path fill="none" stroke="black" d="M258.72,-122.11C258.72,-122.11 258.72,-140.99 258.72,-140.99"/>
<polygon fill="black" stroke="black" points="255.22,-140.99 258.72,-150.99 262.22,-140.99 255.22,-140.99"/>
</g>
</g>
</svg>
