<?xml version="1.0" encoding="UTF-8" standalone="no"?>
<!DOCTYPE svg PUBLIC "-//W3C//DTD SVG 1.1//EN"
 "http://www.w3.org/Graphics/SVG/1.1/DTD/svg11.dtd">
<!-- Generated by graphviz version 2.47.0 (20210316.0004)
 -->
<!-- Title: dependencies Pages: 1 -->
<svg width="576pt" height="211pt"
 viewBox="0.00 0.00 576.00 211.00" xmlns="http://www.w3.org/2000/svg" xmlns:xlink="http://www.w3.org/1999/xlink">
<g id="graph0" class="graph" transform="scale(1 1) rotate(0) translate(4 207)">
<title>dependencies</title>
<polygon fill="white" stroke="transparent" points="-4,4 -4,-207 572,-207 572,4 -4,4"/>
<text text-anchor="start" x="263.01" y="-42.4" font-family="Times-12" font-weight="bold" font-size="14.00">Legend</text>
<polygon fill="#ffffb3" stroke="transparent" points="50,-10 50,-30 70,-30 70,-10 50,-10"/>
<text text-anchor="start" x="73.63" y="-15.4" font-family="Times-12" font-size="14.00"> &#160;Declarations</text>
<polygon fill="#8dd3c7" stroke="transparent" points="163,-10 163,-30 183,-30 183,-10 163,-10"/>
<text text-anchor="start" x="186.73" y="-15.4" font-family="Times-12" font-size="14.00"> &#160;Module</text>
<polygon fill="#80b1d3" stroke="transparent" points="249,-10 249,-30 269,-30 269,-10 249,-10"/>
<text text-anchor="start" x="272.78" y="-15.4" font-family="Times-12" font-size="14.00"> &#160;Bootstrap</text>
<polygon fill="#fdb462" stroke="transparent" points="346,-10 346,-30 366,-30 366,-10 346,-10"/>
<text text-anchor="start" x="369.67" y="-15.4" font-family="Times-12" font-size="14.00"> &#160;Providers</text>
<polygon fill="#fb8072" stroke="transparent" points="442,-10 442,-30 462,-30 462,-10 442,-10"/>
<text text-anchor="start" x="465.73" y="-15.4" font-family="Times-12" font-size="14.00"> &#160;Exports</text>
<g id="clust1" class="cluster">
<title>cluster_FavsPageModule</title>
<polygon fill="none" stroke="black" stroke-dasharray="1,5" points="8,-70 8,-195 560,-195 560,-70 8,-70"/>
</g>
<g id="clust5" class="cluster">
<title>cluster_FavsPageModule_imports</title>
<polygon fill="none" stroke="black" points="262,-78 262,-130 552,-130 552,-78 262,-78"/>
</g>
<g id="clust2" class="cluster">
<title>cluster_FavsPageModule_declarations</title>
<polygon fill="none" stroke="black" points="16,-78 16,-130 254,-130 254,-78 16,-78"/>
</g>
<!-- FavouriteComponent -->
<g id="node1" class="node">
<title>FavouriteComponent</title>
<polygon fill="#ffffb3" stroke="black" points="246.49,-122 111.51,-122 111.51,-86 246.49,-86 246.49,-122"/>
<text text-anchor="middle" x="179" y="-99.8" font-family="Times,serif" font-size="14.00">FavouriteComponent</text>
</g>
<!-- FavsPageModule -->
<g id="node3" class="node">
<title>FavsPageModule</title>
<polygon fill="#8dd3c7" stroke="black" points="305.7,-187 302.7,-191 281.7,-191 278.7,-187 192.3,-187 192.3,-151 305.7,-151 305.7,-187"/>
<text text-anchor="middle" x="249" y="-164.8" font-family="Times,serif" font-size="14.00">FavsPageModule</text>
</g>
<!-- FavouriteComponent&#45;&gt;FavsPageModule -->
<g id="edge1" class="edge">
<title>FavouriteComponent&#45;&gt;FavsPageModule</title>
<path fill="none" stroke="black" d="M219.45,-122.11C219.45,-122.11 219.45,-140.99 219.45,-140.99"/>
<polygon fill="black" stroke="black" points="215.95,-140.99 219.45,-150.99 222.95,-140.99 215.95,-140.99"/>
</g>
<!-- FavsPage -->
<g id="node2" class="node">
<title>FavsPage</title>
<polygon fill="#ffffb3" stroke="black" points="93.65,-122 24.35,-122 24.35,-86 93.65,-86 93.65,-122"/>
<text text-anchor="middle" x="59" y="-99.8" font-family="Times,serif" font-size="14.00">FavsPage</text>
</g>
<!-- FavsPage&#45;&gt;FavsPageModule -->
<g id="edge2" class="edge">
<title>FavsPage&#45;&gt;FavsPageModule</title>
<path fill="none" stroke="black" d="M59,-122.11C59,-141.34 59,-169 59,-169 59,-169 182.25,-169 182.25,-169"/>
<polygon fill="black" stroke="black" points="182.25,-172.5 192.25,-169 182.25,-165.5 182.25,-172.5"/>
</g>
<!-- FavsPageRoutingModule -->
<g id="node4" class="node">
<title>FavsPageRoutingModule</title>
<polygon fill="#8dd3c7" stroke="black" points="544.32,-122 541.32,-126 520.32,-126 517.32,-122 385.68,-122 385.68,-86 544.32,-86 544.32,-122"/>
<text text-anchor="middle" x="465" y="-99.8" font-family="Times,serif" font-size="14.00">FavsPageRoutingModule</text>
</g>
<!-- FavsPageRoutingModule&#45;&gt;FavsPageModule -->
<g id="edge3" class="edge">
<title>FavsPageRoutingModule&#45;&gt;FavsPageModule</title>
<path fill="none" stroke="black" d="M465,-122.11C465,-141.34 465,-169 465,-169 465,-169 315.75,-169 315.75,-169"/>
<polygon fill="black" stroke="black" points="315.75,-165.5 305.75,-169 315.75,-172.5 315.75,-165.5"/>
</g>
<!-- SharedModule -->
<g id="node5" class="node">
<title>SharedModule</title>
<polygon fill="#8dd3c7" stroke="black" points="368.42,-122 365.42,-126 344.42,-126 341.42,-122 269.58,-122 269.58,-86 368.42,-86 368.42,-122"/>
<text text-anchor="middle" x="319" y="-99.8" font-family="Times,serif" font-size="14.00">SharedModule</text>
</g>
<!-- SharedModule&#45;&gt;FavsPageModule -->
<g id="edge4" class="edge">
<title>SharedModule&#45;&gt;FavsPageModule</title>
<path fill="none" stroke="black" d="M287.7,-122.11C287.7,-122.11 287.7,-140.99 287.7,-140.99"/>
<polygon fill="black" stroke="black" points="284.2,-140.99 287.7,-150.99 291.2,-140.99 284.2,-140.99"/>
</g>
</g>
</svg>
