<?xml version="1.0" encoding="UTF-8" standalone="no"?>
<!DOCTYPE svg PUBLIC "-//W3C//DTD SVG 1.1//EN"
 "http://www.w3.org/Graphics/SVG/1.1/DTD/svg11.dtd">
<!-- Generated by graphviz version 2.47.0 (20210316.0004)
 -->
<!-- Title: dependencies Pages: 1 -->
<svg width="506pt" height="211pt"
 viewBox="0.00 0.00 506.00 211.00" xmlns="http://www.w3.org/2000/svg" xmlns:xlink="http://www.w3.org/1999/xlink">
<g id="graph0" class="graph" transform="scale(1 1) rotate(0) translate(4 207)">
<title>dependencies</title>
<polygon fill="white" stroke="transparent" points="-4,4 -4,-207 502,-207 502,4 -4,4"/>
<text text-anchor="start" x="228.01" y="-42.4" font-family="Times-12" font-weight="bold" font-size="14.00">Legend</text>
<polygon fill="#ffffb3" stroke="transparent" points="15,-10 15,-30 35,-30 35,-10 15,-10"/>
<text text-anchor="start" x="38.63" y="-15.4" font-family="Times-12" font-size="14.00"> &#160;Declarations</text>
<polygon fill="#8dd3c7" stroke="transparent" points="128,-10 128,-30 148,-30 148,-10 128,-10"/>
<text text-anchor="start" x="151.73" y="-15.4" font-family="Times-12" font-size="14.00"> &#160;Module</text>
<polygon fill="#80b1d3" stroke="transparent" points="214,-10 214,-30 234,-30 234,-10 214,-10"/>
<text text-anchor="start" x="237.78" y="-15.4" font-family="Times-12" font-size="14.00"> &#160;Bootstrap</text>
<polygon fill="#fdb462" stroke="transparent" points="311,-10 311,-30 331,-30 331,-10 311,-10"/>
<text text-anchor="start" x="334.67" y="-15.4" font-family="Times-12" font-size="14.00"> &#160;Providers</text>
<polygon fill="#fb8072" stroke="transparent" points="407,-10 407,-30 427,-30 427,-10 407,-10"/>
<text text-anchor="start" x="430.73" y="-15.4" font-family="Times-12" font-size="14.00"> &#160;Exports</text>
<g id="clust1" class="cluster">
<title>cluster_ProfileInputPageModule</title>
<polygon fill="none" stroke="black" stroke-dasharray="1,5" points="8,-70 8,-195 490,-195 490,-70 8,-70"/>
</g>
<g id="clust2" class="cluster">
<title>cluster_ProfileInputPageModule_declarations</title>
<polygon fill="none" stroke="black" points="356,-78 356,-130 482,-130 482,-78 356,-78"/>
</g>
<g id="clust4" class="cluster">
<title>cluster_ProfileInputPageModule_imports</title>
<polygon fill="none" stroke="black" points="16,-78 16,-130 348,-130 348,-78 16,-78"/>
</g>
<!-- ProfileInputPage -->
<g id="node1" class="node">
<title>ProfileInputPage</title>
<polygon fill="#ffffb3" stroke="black" points="474.36,-122 363.64,-122 363.64,-86 474.36,-86 474.36,-122"/>
<text text-anchor="middle" x="419" y="-99.8" font-family="Times,serif" font-size="14.00">ProfileInputPage</text>
</g>
<!-- ProfileInputPageModule -->
<g id="node2" class="node">
<title>ProfileInputPageModule</title>
<polygon fill="#8dd3c7" stroke="black" points="317.41,-187 314.41,-191 293.41,-191 290.41,-187 162.59,-187 162.59,-151 317.41,-151 317.41,-187"/>
<text text-anchor="middle" x="240" y="-164.8" font-family="Times,serif" font-size="14.00">ProfileInputPageModule</text>
</g>
<!-- ProfileInputPage&#45;&gt;ProfileInputPageModule -->
<g id="edge1" class="edge">
<title>ProfileInputPage&#45;&gt;ProfileInputPageModule</title>
<path fill="none" stroke="black" d="M419,-122.11C419,-141.34 419,-169 419,-169 419,-169 327.21,-169 327.21,-169"/>
<polygon fill="black" stroke="black" points="327.21,-165.5 317.21,-169 327.21,-172.5 327.21,-165.5"/>
</g>
<!-- ProfileInputPageRoutingModule -->
<g id="node3" class="node">
<title>ProfileInputPageRoutingModule</title>
<polygon fill="#8dd3c7" stroke="black" points="339.53,-122 336.53,-126 315.53,-126 312.53,-122 140.47,-122 140.47,-86 339.53,-86 339.53,-122"/>
<text text-anchor="middle" x="240" y="-99.8" font-family="Times,serif" font-size="14.00">ProfileInputPageRoutingModule</text>
</g>
<!-- ProfileInputPageRoutingModule&#45;&gt;ProfileInputPageModule -->
<g id="edge2" class="edge">
<title>ProfileInputPageRoutingModule&#45;&gt;ProfileInputPageModule</title>
<path fill="none" stroke="black" d="M240,-122.11C240,-122.11 240,-140.99 240,-140.99"/>
<polygon fill="black" stroke="black" points="236.5,-140.99 240,-150.99 243.5,-140.99 236.5,-140.99"/>
</g>
<!-- SharedModule -->
<g id="node4" class="node">
<title>SharedModule</title>
<polygon fill="#8dd3c7" stroke="black" points="122.42,-122 119.42,-126 98.42,-126 95.42,-122 23.58,-122 23.58,-86 122.42,-86 122.42,-122"/>
<text text-anchor="middle" x="73" y="-99.8" font-family="Times,serif" font-size="14.00">SharedModule</text>
</g>
<!-- SharedModule&#45;&gt;ProfileInputPageModule -->
<g id="edge3" class="edge">
<title>SharedModule&#45;&gt;ProfileInputPageModule</title>
<path fill="none" stroke="black" d="M73,-122.11C73,-141.34 73,-169 73,-169 73,-169 152.37,-169 152.37,-169"/>
<polygon fill="black" stroke="black" points="152.37,-172.5 162.37,-169 152.37,-165.5 152.37,-172.5"/>
</g>
</g>
</svg>
