<?xml version="1.0" encoding="UTF-8" standalone="no"?>
<!DOCTYPE svg PUBLIC "-//W3C//DTD SVG 1.1//EN"
 "http://www.w3.org/Graphics/SVG/1.1/DTD/svg11.dtd">
<!-- Generated by graphviz version 2.47.0 (20210316.0004)
 -->
<!-- Title: dependencies Pages: 1 -->
<svg width="3741pt" height="290pt"
 viewBox="0.00 0.00 3741.00 290.00" xmlns="http://www.w3.org/2000/svg" xmlns:xlink="http://www.w3.org/1999/xlink">
<g id="graph0" class="graph" transform="scale(1 1) rotate(0) translate(4 286)">
<title>dependencies</title>
<polygon fill="white" stroke="transparent" points="-4,4 -4,-286 3737,-286 3737,4 -4,4"/>
<text text-anchor="start" x="1845.51" y="-42.4" font-family="Times-12" font-weight="bold" font-size="14.00">Legend</text>
<polygon fill="#ffffb3" stroke="transparent" points="1632.5,-10 1632.5,-30 1652.5,-30 1652.5,-10 1632.5,-10"/>
<text text-anchor="start" x="1656.13" y="-15.4" font-family="Times-12" font-size="14.00"> &#160;Declarations</text>
<polygon fill="#8dd3c7" stroke="transparent" points="1745.5,-10 1745.5,-30 1765.5,-30 1765.5,-10 1745.5,-10"/>
<text text-anchor="start" x="1769.23" y="-15.4" font-family="Times-12" font-size="14.00"> &#160;Module</text>
<polygon fill="#80b1d3" stroke="transparent" points="1831.5,-10 1831.5,-30 1851.5,-30 1851.5,-10 1831.5,-10"/>
<text text-anchor="start" x="1855.28" y="-15.4" font-family="Times-12" font-size="14.00"> &#160;Bootstrap</text>
<polygon fill="#fdb462" stroke="transparent" points="1928.5,-10 1928.5,-30 1948.5,-30 1948.5,-10 1928.5,-10"/>
<text text-anchor="start" x="1952.17" y="-15.4" font-family="Times-12" font-size="14.00"> &#160;Providers</text>
<polygon fill="#fb8072" stroke="transparent" points="2024.5,-10 2024.5,-30 2044.5,-30 2044.5,-10 2024.5,-10"/>
<text text-anchor="start" x="2048.23" y="-15.4" font-family="Times-12" font-size="14.00"> &#160;Exports</text>
<g id="clust1" class="cluster">
<title>cluster_AppModule</title>
<polygon fill="none" stroke="black" stroke-dasharray="1,5" points="8,-70 8,-274 298,-274 298,-70 8,-70"/>
</g>
<g id="clust2" class="cluster">
<title>cluster_AppModule_declarations</title>
<polygon fill="none" stroke="black" points="168,-78 168,-130 290,-130 290,-78 168,-78"/>
</g>
<g id="clust4" class="cluster">
<title>cluster_AppModule_imports</title>
<polygon fill="none" stroke="black" points="16,-78 16,-130 160,-130 160,-78 16,-78"/>
</g>
<g id="clust6" class="cluster">
<title>cluster_AppModule_bootstrap</title>
<polygon fill="none" stroke="black" points="96,-214 96,-266 220,-266 220,-214 96,-214"/>
</g>
<g id="clust14" class="cluster">
<title>cluster_FavsPageModule</title>
<polygon fill="none" stroke="black" stroke-dasharray="1,5" points="1029,-70 1029,-198 1581,-198 1581,-70 1029,-70"/>
</g>
<g id="clust15" class="cluster">
<title>cluster_FavsPageModule_declarations</title>
<polygon fill="none" stroke="black" points="1037,-78 1037,-130 1275,-130 1275,-78 1037,-78"/>
</g>
<g id="clust18" class="cluster">
<title>cluster_FavsPageModule_imports</title>
<polygon fill="none" stroke="black" points="1283,-78 1283,-130 1573,-130 1573,-78 1283,-78"/>
</g>
<g id="clust28" class="cluster">
<title>cluster_GroceryPageModule</title>
<polygon fill="none" stroke="black" stroke-dasharray="1,5" points="1589,-70 1589,-198 1913,-198 1913,-70 1589,-70"/>
</g>
<g id="clust29" class="cluster">
<title>cluster_GroceryPageModule_declarations</title>
<polygon fill="none" stroke="black" points="1799,-78 1799,-130 1905,-130 1905,-78 1799,-78"/>
</g>
<g id="clust31" class="cluster">
<title>cluster_GroceryPageModule_imports</title>
<polygon fill="none" stroke="black" points="1597,-78 1597,-130 1791,-130 1791,-78 1597,-78"/>
</g>
<g id="clust41" class="cluster">
<title>cluster_HomePageModule</title>
<polygon fill="none" stroke="black" stroke-dasharray="1,5" points="1921,-70 1921,-198 2385,-198 2385,-70 1921,-70"/>
</g>
<g id="clust42" class="cluster">
<title>cluster_HomePageModule_declarations</title>
<polygon fill="none" stroke="black" points="2119,-78 2119,-130 2377,-130 2377,-78 2119,-78"/>
</g>
<g id="clust45" class="cluster">
<title>cluster_HomePageModule_imports</title>
<polygon fill="none" stroke="black" points="1929,-78 1929,-130 2111,-130 2111,-78 1929,-78"/>
</g>
<g id="clust55" class="cluster">
<title>cluster_LoginPageModule</title>
<polygon fill="none" stroke="black" stroke-dasharray="1,5" points="2393,-70 2393,-198 2691,-198 2691,-70 2393,-70"/>
</g>
<g id="clust56" class="cluster">
<title>cluster_LoginPageModule_declarations</title>
<polygon fill="none" stroke="black" points="2591,-78 2591,-130 2683,-130 2683,-78 2591,-78"/>
</g>
<g id="clust58" class="cluster">
<title>cluster_LoginPageModule_imports</title>
<polygon fill="none" stroke="black" points="2401,-78 2401,-130 2583,-130 2583,-78 2401,-78"/>
</g>
<g id="clust68" class="cluster">
<title>cluster_NutrientsPageModule</title>
<polygon fill="none" stroke="black" stroke-dasharray="1,5" points="3389,-70 3389,-198 3725,-198 3725,-70 3389,-70"/>
</g>
<g id="clust69" class="cluster">
<title>cluster_NutrientsPageModule_declarations</title>
<polygon fill="none" stroke="black" points="3605,-78 3605,-130 3717,-130 3717,-78 3605,-78"/>
</g>
<g id="clust71" class="cluster">
<title>cluster_NutrientsPageModule_imports</title>
<polygon fill="none" stroke="black" points="3397,-78 3397,-130 3597,-130 3597,-78 3397,-78"/>
</g>
<g id="clust81" class="cluster">
<title>cluster_ProfileInputPageModule</title>
<polygon fill="none" stroke="black" stroke-dasharray="1,5" points="2699,-70 2699,-198 3065,-198 3065,-70 2699,-70"/>
</g>
<g id="clust82" class="cluster">
<title>cluster_ProfileInputPageModule_declarations</title>
<polygon fill="none" stroke="black" points="2931,-78 2931,-130 3057,-130 3057,-78 2931,-78"/>
</g>
<g id="clust84" class="cluster">
<title>cluster_ProfileInputPageModule_imports</title>
<polygon fill="none" stroke="black" points="2707,-78 2707,-130 2923,-130 2923,-78 2707,-78"/>
</g>
<g id="clust94" class="cluster">
<title>cluster_RecipePageModule</title>
<polygon fill="none" stroke="black" stroke-dasharray="1,5" points="3073,-70 3073,-198 3381,-198 3381,-70 3073,-70"/>
</g>
<g id="clust95" class="cluster">
<title>cluster_RecipePageModule_declarations</title>
<polygon fill="none" stroke="black" points="3275,-78 3275,-130 3373,-130 3373,-78 3275,-78"/>
</g>
<g id="clust97" class="cluster">
<title>cluster_RecipePageModule_imports</title>
<polygon fill="none" stroke="black" points="3081,-78 3081,-130 3267,-130 3267,-78 3081,-78"/>
</g>
<g id="clust107" class="cluster">
<title>cluster_SharedModule</title>
<polygon fill="none" stroke="black" stroke-dasharray="1,5" points="306,-138 306,-206 1021,-206 1021,-138 306,-138"/>
</g>
<g id="clust108" class="cluster">
<title>cluster_SharedModule_declarations</title>
<polygon fill="none" stroke="black" points="671,-146 671,-198 1013,-198 1013,-146 671,-146"/>
</g>
<g id="clust112" class="cluster">
<title>cluster_SharedModule_exports</title>
<polygon fill="none" stroke="black" points="314,-146 314,-198 663,-198 663,-146 314,-146"/>
</g>
<!-- AppComponent -->
<g id="node1" class="node">
<title>AppComponent</title>
<polygon fill="#ffffb3" stroke="black" points="281.94,-122 176.06,-122 176.06,-86 281.94,-86 281.94,-122"/>
<text text-anchor="middle" x="229" y="-99.8" font-family="Times,serif" font-size="14.00">AppComponent</text>
</g>
<!-- AppModule -->
<g id="node2" class="node">
<title>AppModule</title>
<polygon fill="#8dd3c7" stroke="black" points="199.66,-190 196.66,-194 175.66,-194 172.66,-190 116.34,-190 116.34,-154 199.66,-154 199.66,-190"/>
<text text-anchor="middle" x="158" y="-167.8" font-family="Times,serif" font-size="14.00">AppModule</text>
</g>
<!-- AppComponent&#45;&gt;AppModule -->
<g id="edge1" class="edge">
<title>AppComponent&#45;&gt;AppModule</title>
<path fill="none" stroke="black" d="M188.05,-122.22C188.05,-122.22 188.05,-143.73 188.05,-143.73"/>
<polygon fill="black" stroke="black" points="184.55,-143.73 188.05,-153.73 191.55,-143.73 184.55,-143.73"/>
</g>
<!-- AppComponent  -->
<g id="node4" class="node">
<title>AppComponent </title>
<polygon fill="#80b1d3" stroke="black" points="212.44,-258 103.56,-258 103.56,-222 212.44,-222 212.44,-258"/>
<text text-anchor="middle" x="158" y="-235.8" font-family="Times,serif" font-size="14.00">AppComponent </text>
</g>
<!-- AppModule&#45;&gt;AppComponent  -->
<g id="edge3" class="edge">
<title>AppModule&#45;&gt;AppComponent </title>
<path fill="none" stroke="black" stroke-dasharray="1,5" d="M158,-190.22C158,-190.22 158,-211.73 158,-211.73"/>
<polygon fill="black" stroke="black" points="154.5,-211.73 158,-221.73 161.5,-211.73 154.5,-211.73"/>
</g>
<!-- AppRoutingModule -->
<g id="node3" class="node">
<title>AppRoutingModule</title>
<polygon fill="#8dd3c7" stroke="black" points="152.27,-122 149.27,-126 128.27,-126 125.27,-122 23.73,-122 23.73,-86 152.27,-86 152.27,-122"/>
<text text-anchor="middle" x="88" y="-99.8" font-family="Times,serif" font-size="14.00">AppRoutingModule</text>
</g>
<!-- AppRoutingModule&#45;&gt;AppModule -->
<g id="edge2" class="edge">
<title>AppRoutingModule&#45;&gt;AppModule</title>
<path fill="none" stroke="black" d="M134.28,-122.22C134.28,-122.22 134.28,-143.73 134.28,-143.73"/>
<polygon fill="black" stroke="black" points="130.78,-143.73 134.28,-153.73 137.78,-143.73 130.78,-143.73"/>
</g>
<!-- FavouriteComponent -->
<g id="node5" class="node">
<title>FavouriteComponent</title>
<polygon fill="#ffffb3" stroke="black" points="1267.49,-122 1132.51,-122 1132.51,-86 1267.49,-86 1267.49,-122"/>
<text text-anchor="middle" x="1200" y="-99.8" font-family="Times,serif" font-size="14.00">FavouriteComponent</text>
</g>
<!-- FavsPageModule -->
<g id="node7" class="node">
<title>FavsPageModule</title>
<polygon fill="#8dd3c7" stroke="black" points="1341.7,-190 1338.7,-194 1317.7,-194 1314.7,-190 1228.3,-190 1228.3,-154 1341.7,-154 1341.7,-190"/>
<text text-anchor="middle" x="1285" y="-167.8" font-family="Times,serif" font-size="14.00">FavsPageModule</text>
</g>
<!-- FavouriteComponent&#45;&gt;FavsPageModule -->
<g id="edge4" class="edge">
<title>FavouriteComponent&#45;&gt;FavsPageModule</title>
<path fill="none" stroke="black" d="M1247.95,-122.22C1247.95,-122.22 1247.95,-143.73 1247.95,-143.73"/>
<polygon fill="black" stroke="black" points="1244.45,-143.73 1247.95,-153.73 1251.45,-143.73 1244.45,-143.73"/>
</g>
<!-- FavsPage -->
<g id="node6" class="node">
<title>FavsPage</title>
<polygon fill="#ffffb3" stroke="black" points="1114.65,-122 1045.35,-122 1045.35,-86 1114.65,-86 1114.65,-122"/>
<text text-anchor="middle" x="1080" y="-99.8" font-family="Times,serif" font-size="14.00">FavsPage</text>
</g>
<!-- FavsPage&#45;&gt;FavsPageModule -->
<g id="edge5" class="edge">
<title>FavsPage&#45;&gt;FavsPageModule</title>
<path fill="none" stroke="black" d="M1080,-122.22C1080,-142.37 1080,-172 1080,-172 1080,-172 1218.17,-172 1218.17,-172"/>
<polygon fill="black" stroke="black" points="1218.17,-175.5 1228.17,-172 1218.17,-168.5 1218.17,-175.5"/>
</g>
<!-- FavsPageRoutingModule -->
<g id="node8" class="node">
<title>FavsPageRoutingModule</title>
<polygon fill="#8dd3c7" stroke="black" points="1449.32,-122 1446.32,-126 1425.32,-126 1422.32,-122 1290.68,-122 1290.68,-86 1449.32,-86 1449.32,-122"/>
<text text-anchor="middle" x="1370" y="-99.8" font-family="Times,serif" font-size="14.00">FavsPageRoutingModule</text>
</g>
<!-- FavsPageRoutingModule&#45;&gt;FavsPageModule -->
<g id="edge6" class="edge">
<title>FavsPageRoutingModule&#45;&gt;FavsPageModule</title>
<path fill="none" stroke="black" d="M1316.22,-122.22C1316.22,-122.22 1316.22,-143.73 1316.22,-143.73"/>
<polygon fill="black" stroke="black" points="1312.72,-143.73 1316.22,-153.73 1319.72,-143.73 1312.72,-143.73"/>
</g>
<!-- SharedModule -->
<g id="node9" class="node">
<title>SharedModule</title>
<polygon fill="#8dd3c7" stroke="black" points="1565.42,-122 1562.42,-126 1541.42,-126 1538.42,-122 1466.58,-122 1466.58,-86 1565.42,-86 1565.42,-122"/>
<text text-anchor="middle" x="1516" y="-99.8" font-family="Times,serif" font-size="14.00">SharedModule</text>
</g>
<!-- SharedModule&#45;&gt;FavsPageModule -->
<g id="edge7" class="edge">
<title>SharedModule&#45;&gt;FavsPageModule</title>
<path fill="none" stroke="black" d="M1547.32,-122.27C1547.32,-140.56 1547.32,-166 1547.32,-166 1547.32,-166 1351.92,-166 1351.92,-166"/>
<polygon fill="black" stroke="black" points="1351.92,-162.5 1341.92,-166 1351.92,-169.5 1351.92,-162.5"/>
</g>
<!-- GroceryPageModule -->
<g id="node11" class="node">
<title>GroceryPageModule</title>
<polygon fill="#8dd3c7" stroke="black" points="1760.12,-190 1757.12,-194 1736.12,-194 1733.12,-190 1627.88,-190 1627.88,-154 1760.12,-154 1760.12,-190"/>
<text text-anchor="middle" x="1694" y="-167.8" font-family="Times,serif" font-size="14.00">GroceryPageModule</text>
</g>
<!-- SharedModule&#45;&gt;GroceryPageModule -->
<g id="edge10" class="edge">
<title>SharedModule&#45;&gt;GroceryPageModule</title>
<path fill="none" stroke="black" d="M1556.26,-122.29C1556.26,-144.21 1556.26,-178 1556.26,-178 1556.26,-178 1617.55,-178 1617.55,-178"/>
<polygon fill="black" stroke="black" points="1617.55,-181.5 1627.55,-178 1617.55,-174.5 1617.55,-181.5"/>
</g>
<!-- HomePageModule -->
<g id="node15" class="node">
<title>HomePageModule</title>
<polygon fill="#8dd3c7" stroke="black" points="2170.47,-190 2167.47,-194 2146.47,-194 2143.47,-190 2049.53,-190 2049.53,-154 2170.47,-154 2170.47,-190"/>
<text text-anchor="middle" x="2110" y="-167.8" font-family="Times,serif" font-size="14.00">HomePageModule</text>
</g>
<!-- SharedModule&#45;&gt;HomePageModule -->
<g id="edge14" class="edge">
<title>SharedModule&#45;&gt;HomePageModule</title>
<path fill="none" stroke="black" d="M1511.53,-122.49C1511.53,-134.14 1511.53,-147 1511.53,-147 1511.53,-147 2067.36,-147 2067.36,-147 2067.36,-147 2067.36,-147.68 2067.36,-147.68"/>
<polygon fill="black" stroke="black" points="2063.86,-143.83 2067.36,-153.83 2070.86,-143.83 2063.86,-143.83"/>
</g>
<!-- LoginPageModule -->
<g id="node18" class="node">
<title>LoginPageModule</title>
<polygon fill="#8dd3c7" stroke="black" points="2552.2,-190 2549.2,-194 2528.2,-194 2525.2,-190 2431.8,-190 2431.8,-154 2552.2,-154 2552.2,-190"/>
<text text-anchor="middle" x="2492" y="-167.8" font-family="Times,serif" font-size="14.00">LoginPageModule</text>
</g>
<!-- SharedModule&#45;&gt;LoginPageModule -->
<g id="edge17" class="edge">
<title>SharedModule&#45;&gt;LoginPageModule</title>
<path fill="none" stroke="black" d="M1520.47,-122.04C1520.47,-129.75 1520.47,-137 1520.47,-137 1520.47,-137 2471.97,-137 2471.97,-137 2471.97,-137 2471.97,-143.68 2471.97,-143.68"/>
<polygon fill="black" stroke="black" points="2468.47,-143.68 2471.97,-153.68 2475.47,-143.68 2468.47,-143.68"/>
</g>
<!-- ProfileInputPageModule -->
<g id="node24" class="node">
<title>ProfileInputPageModule</title>
<polygon fill="#8dd3c7" stroke="black" points="2892.41,-190 2889.41,-194 2868.41,-194 2865.41,-190 2737.59,-190 2737.59,-154 2892.41,-154 2892.41,-190"/>
<text text-anchor="middle" x="2815" y="-167.8" font-family="Times,serif" font-size="14.00">ProfileInputPageModule</text>
</g>
<!-- SharedModule&#45;&gt;ProfileInputPageModule -->
<g id="edge22" class="edge">
<title>SharedModule&#45;&gt;ProfileInputPageModule</title>
<path fill="none" stroke="black" d="M1529.42,-122.06C1529.42,-126.49 1529.42,-130 1529.42,-130 1529.42,-130 2789.26,-130 2789.26,-130 2789.26,-130 2789.26,-143.94 2789.26,-143.94"/>
<polygon fill="black" stroke="black" points="2785.76,-143.94 2789.26,-153.94 2792.76,-143.94 2785.76,-143.94"/>
</g>
<!-- RecipePageModule -->
<g id="node27" class="node">
<title>RecipePageModule</title>
<polygon fill="#8dd3c7" stroke="black" points="3236.63,-190 3233.63,-194 3212.63,-194 3209.63,-190 3111.37,-190 3111.37,-154 3236.63,-154 3236.63,-190"/>
<text text-anchor="middle" x="3174" y="-167.8" font-family="Times,serif" font-size="14.00">RecipePageModule</text>
</g>
<!-- SharedModule&#45;&gt;RecipePageModule -->
<g id="edge25" class="edge">
<title>SharedModule&#45;&gt;RecipePageModule</title>
<path fill="none" stroke="black" d="M1538.37,-122.17C1538.37,-124.45 1538.37,-126 1538.37,-126 1538.37,-126 3153.06,-126 3153.06,-126 3153.06,-126 3153.06,-143.82 3153.06,-143.82"/>
<polygon fill="black" stroke="black" points="3149.56,-143.82 3153.06,-153.82 3156.56,-143.82 3149.56,-143.82"/>
</g>
<!-- HeaderComponent  -->
<g id="node31" class="node">
<title>HeaderComponent </title>
<polygon fill="#fb8072" stroke="black" points="654.74,-190 529.26,-190 529.26,-154 654.74,-154 654.74,-190"/>
<text text-anchor="middle" x="592" y="-167.8" font-family="Times,serif" font-size="14.00">HeaderComponent </text>
</g>
<!-- SharedModule&#45;&gt;HeaderComponent  -->
<g id="edge28" class="edge">
<title>SharedModule&#45;&gt;HeaderComponent </title>
<path fill="none" stroke="black" stroke-dasharray="5,2" d="M1484.68,-122.42C1484.68,-131.28 1484.68,-140 1484.68,-140 1484.68,-140 592,-140 592,-140 592,-140 592,-143.76 592,-143.76"/>
<polygon fill="black" stroke="black" points="588.5,-143.76 592,-153.76 595.5,-143.76 588.5,-143.76"/>
</g>
<!-- UpdateGoalModalComponent  -->
<g id="node32" class="node">
<title>UpdateGoalModalComponent </title>
<polygon fill="#fb8072" stroke="black" points="511.52,-190 322.48,-190 322.48,-154 511.52,-154 511.52,-190"/>
<text text-anchor="middle" x="417" y="-167.8" font-family="Times,serif" font-size="14.00">UpdateGoalModalComponent </text>
</g>
<!-- SharedModule&#45;&gt;UpdateGoalModalComponent  -->
<g id="edge29" class="edge">
<title>SharedModule&#45;&gt;UpdateGoalModalComponent </title>
<path fill="none" stroke="black" stroke-dasharray="5,2" d="M1475.74,-122.2C1475.74,-128.03 1475.74,-133 1475.74,-133 1475.74,-133 417,-133 417,-133 417,-133 417,-143.87 417,-143.87"/>
<polygon fill="black" stroke="black" points="413.5,-143.87 417,-153.87 420.5,-143.87 413.5,-143.87"/>
</g>
<!-- GroceryPage -->
<g id="node10" class="node">
<title>GroceryPage</title>
<polygon fill="#ffffb3" stroke="black" points="1896.57,-122 1807.43,-122 1807.43,-86 1896.57,-86 1896.57,-122"/>
<text text-anchor="middle" x="1852" y="-99.8" font-family="Times,serif" font-size="14.00">GroceryPage</text>
</g>
<!-- GroceryPage&#45;&gt;GroceryPageModule -->
<g id="edge8" class="edge">
<title>GroceryPage&#45;&gt;GroceryPageModule</title>
<path fill="none" stroke="black" d="M1852,-122.22C1852,-142.37 1852,-172 1852,-172 1852,-172 1770.55,-172 1770.55,-172"/>
<polygon fill="black" stroke="black" points="1770.55,-168.5 1760.55,-172 1770.55,-175.5 1770.55,-168.5"/>
</g>
<!-- GroceryPageRoutingModule -->
<g id="node12" class="node">
<title>GroceryPageRoutingModule</title>
<polygon fill="#8dd3c7" stroke="black" points="1782.74,-122 1779.74,-126 1758.74,-126 1755.74,-122 1605.26,-122 1605.26,-86 1782.74,-86 1782.74,-122"/>
<text text-anchor="middle" x="1694" y="-99.8" font-family="Times,serif" font-size="14.00">GroceryPageRoutingModule</text>
</g>
<!-- GroceryPageRoutingModule&#45;&gt;GroceryPageModule -->
<g id="edge9" class="edge">
<title>GroceryPageRoutingModule&#45;&gt;GroceryPageModule</title>
<path fill="none" stroke="black" d="M1694,-122.22C1694,-122.22 1694,-143.73 1694,-143.73"/>
<polygon fill="black" stroke="black" points="1690.5,-143.73 1694,-153.73 1697.5,-143.73 1690.5,-143.73"/>
</g>
<!-- HomePage -->
<g id="node13" class="node">
<title>HomePage</title>
<polygon fill="#ffffb3" stroke="black" points="2368.92,-122 2291.08,-122 2291.08,-86 2368.92,-86 2368.92,-122"/>
<text text-anchor="middle" x="2330" y="-99.8" font-family="Times,serif" font-size="14.00">HomePage</text>
</g>
<!-- HomePage&#45;&gt;HomePageModule -->
<g id="edge11" class="edge">
<title>HomePage&#45;&gt;HomePageModule</title>
<path fill="none" stroke="black" d="M2330,-122.22C2330,-142.37 2330,-172 2330,-172 2330,-172 2180.7,-172 2180.7,-172"/>
<polygon fill="black" stroke="black" points="2180.7,-168.5 2170.7,-172 2180.7,-175.5 2180.7,-168.5"/>
</g>
<!-- MealResultComponent -->
<g id="node14" class="node">
<title>MealResultComponent</title>
<polygon fill="#ffffb3" stroke="black" points="2272.87,-122 2127.13,-122 2127.13,-86 2272.87,-86 2272.87,-122"/>
<text text-anchor="middle" x="2200" y="-99.8" font-family="Times,serif" font-size="14.00">MealResultComponent</text>
</g>
<!-- MealResultComponent&#45;&gt;HomePageModule -->
<g id="edge12" class="edge">
<title>MealResultComponent&#45;&gt;HomePageModule</title>
<path fill="none" stroke="black" d="M2148.77,-122.22C2148.77,-122.22 2148.77,-143.73 2148.77,-143.73"/>
<polygon fill="black" stroke="black" points="2145.27,-143.73 2148.77,-153.73 2152.27,-143.73 2145.27,-143.73"/>
</g>
<!-- HomePageRoutingModule -->
<g id="node16" class="node">
<title>HomePageRoutingModule</title>
<polygon fill="#8dd3c7" stroke="black" points="2103.09,-122 2100.09,-126 2079.09,-126 2076.09,-122 1936.91,-122 1936.91,-86 2103.09,-86 2103.09,-122"/>
<text text-anchor="middle" x="2020" y="-99.8" font-family="Times,serif" font-size="14.00">HomePageRoutingModule</text>
</g>
<!-- HomePageRoutingModule&#45;&gt;HomePageModule -->
<g id="edge13" class="edge">
<title>HomePageRoutingModule&#45;&gt;HomePageModule</title>
<path fill="none" stroke="black" d="M2085.2,-122.22C2085.2,-122.22 2085.2,-143.73 2085.2,-143.73"/>
<polygon fill="black" stroke="black" points="2081.7,-143.73 2085.2,-153.73 2088.7,-143.73 2081.7,-143.73"/>
</g>
<!-- LoginPage -->
<g id="node17" class="node">
<title>LoginPage</title>
<polygon fill="#ffffb3" stroke="black" points="2675.16,-122 2598.84,-122 2598.84,-86 2675.16,-86 2675.16,-122"/>
<text text-anchor="middle" x="2637" y="-99.8" font-family="Times,serif" font-size="14.00">LoginPage</text>
</g>
<!-- LoginPage&#45;&gt;LoginPageModule -->
<g id="edge15" class="edge">
<title>LoginPage&#45;&gt;LoginPageModule</title>
<path fill="none" stroke="black" d="M2637,-122.22C2637,-142.37 2637,-172 2637,-172 2637,-172 2562.23,-172 2562.23,-172"/>
<polygon fill="black" stroke="black" points="2562.23,-168.5 2552.23,-172 2562.23,-175.5 2562.23,-168.5"/>
</g>
<!-- LoginPageRoutingModule -->
<g id="node19" class="node">
<title>LoginPageRoutingModule</title>
<polygon fill="#8dd3c7" stroke="black" points="2574.82,-122 2571.82,-126 2550.82,-126 2547.82,-122 2409.18,-122 2409.18,-86 2574.82,-86 2574.82,-122"/>
<text text-anchor="middle" x="2492" y="-99.8" font-family="Times,serif" font-size="14.00">LoginPageRoutingModule</text>
</g>
<!-- LoginPageRoutingModule&#45;&gt;LoginPageModule -->
<g id="edge16" class="edge">
<title>LoginPageRoutingModule&#45;&gt;LoginPageModule</title>
<path fill="none" stroke="black" d="M2512.03,-122.22C2512.03,-122.22 2512.03,-143.73 2512.03,-143.73"/>
<polygon fill="black" stroke="black" points="2508.53,-143.73 2512.03,-153.73 2515.53,-143.73 2508.53,-143.73"/>
</g>
<!-- NutrientsPage -->
<g id="node20" class="node">
<title>NutrientsPage</title>
<polygon fill="#ffffb3" stroke="black" points="3708.81,-122 3613.19,-122 3613.19,-86 3708.81,-86 3708.81,-122"/>
<text text-anchor="middle" x="3661" y="-99.8" font-family="Times,serif" font-size="14.00">NutrientsPage</text>
</g>
<!-- NutrientsPageModule -->
<g id="node21" class="node">
<title>NutrientsPageModule</title>
<polygon fill="#8dd3c7" stroke="black" points="3641.36,-190 3638.36,-194 3617.36,-194 3614.36,-190 3502.64,-190 3502.64,-154 3641.36,-154 3641.36,-190"/>
<text text-anchor="middle" x="3572" y="-167.8" font-family="Times,serif" font-size="14.00">NutrientsPageModule</text>
</g>
<!-- NutrientsPage&#45;&gt;NutrientsPageModule -->
<g id="edge18" class="edge">
<title>NutrientsPage&#45;&gt;NutrientsPageModule</title>
<path fill="none" stroke="black" d="M3627.39,-122.22C3627.39,-122.22 3627.39,-143.73 3627.39,-143.73"/>
<polygon fill="black" stroke="black" points="3623.89,-143.73 3627.39,-153.73 3630.89,-143.73 3623.89,-143.73"/>
</g>
<!-- NutrientsPageRoutingModule -->
<g id="node22" class="node">
<title>NutrientsPageRoutingModule</title>
<polygon fill="#8dd3c7" stroke="black" points="3588.98,-122 3585.98,-126 3564.98,-126 3561.98,-122 3405.02,-122 3405.02,-86 3588.98,-86 3588.98,-122"/>
<text text-anchor="middle" x="3497" y="-99.8" font-family="Times,serif" font-size="14.00">NutrientsPageRoutingModule</text>
</g>
<!-- NutrientsPageRoutingModule&#45;&gt;NutrientsPageModule -->
<g id="edge19" class="edge">
<title>NutrientsPageRoutingModule&#45;&gt;NutrientsPageModule</title>
<path fill="none" stroke="black" d="M3545.78,-122.22C3545.78,-122.22 3545.78,-143.73 3545.78,-143.73"/>
<polygon fill="black" stroke="black" points="3542.28,-143.73 3545.78,-153.73 3549.28,-143.73 3542.28,-143.73"/>
</g>
<!-- ProfileInputPage -->
<g id="node23" class="node">
<title>ProfileInputPage</title>
<polygon fill="#ffffb3" stroke="black" points="3049.36,-122 2938.64,-122 2938.64,-86 3049.36,-86 3049.36,-122"/>
<text text-anchor="middle" x="2994" y="-99.8" font-family="Times,serif" font-size="14.00">ProfileInputPage</text>
</g>
<!-- ProfileInputPage&#45;&gt;ProfileInputPageModule -->
<g id="edge20" class="edge">
<title>ProfileInputPage&#45;&gt;ProfileInputPageModule</title>
<path fill="none" stroke="black" d="M2994,-122.22C2994,-142.37 2994,-172 2994,-172 2994,-172 2902.21,-172 2902.21,-172"/>
<polygon fill="black" stroke="black" points="2902.21,-168.5 2892.21,-172 2902.21,-175.5 2902.21,-168.5"/>
</g>
<!-- ProfileInputPageRoutingModule -->
<g id="node25" class="node">
<title>ProfileInputPageRoutingModule</title>
<polygon fill="#8dd3c7" stroke="black" points="2914.53,-122 2911.53,-126 2890.53,-126 2887.53,-122 2715.47,-122 2715.47,-86 2914.53,-86 2914.53,-122"/>
<text text-anchor="middle" x="2815" y="-99.8" font-family="Times,serif" font-size="14.00">ProfileInputPageRoutingModule</text>
</g>
<!-- ProfileInputPageRoutingModule&#45;&gt;ProfileInputPageModule -->
<g id="edge21" class="edge">
<title>ProfileInputPageRoutingModule&#45;&gt;ProfileInputPageModule</title>
<path fill="none" stroke="black" d="M2840.74,-122.22C2840.74,-122.22 2840.74,-143.73 2840.74,-143.73"/>
<polygon fill="black" stroke="black" points="2837.24,-143.73 2840.74,-153.73 2844.24,-143.73 2837.24,-143.73"/>
</g>
<!-- RecipePage -->
<g id="node26" class="node">
<title>RecipePage</title>
<polygon fill="#ffffb3" stroke="black" points="3365.08,-122 3282.92,-122 3282.92,-86 3365.08,-86 3365.08,-122"/>
<text text-anchor="middle" x="3324" y="-99.8" font-family="Times,serif" font-size="14.00">RecipePage</text>
</g>
<!-- RecipePage&#45;&gt;RecipePageModule -->
<g id="edge23" class="edge">
<title>RecipePage&#45;&gt;RecipePageModule</title>
<path fill="none" stroke="black" d="M3324,-122.22C3324,-142.37 3324,-172 3324,-172 3324,-172 3246.74,-172 3246.74,-172"/>
<polygon fill="black" stroke="black" points="3246.74,-168.5 3236.74,-172 3246.74,-175.5 3246.74,-168.5"/>
</g>
<!-- RecipePageRoutingModule -->
<g id="node28" class="node">
<title>RecipePageRoutingModule</title>
<polygon fill="#8dd3c7" stroke="black" points="3259.25,-122 3256.25,-126 3235.25,-126 3232.25,-122 3088.75,-122 3088.75,-86 3259.25,-86 3259.25,-122"/>
<text text-anchor="middle" x="3174" y="-99.8" font-family="Times,serif" font-size="14.00">RecipePageRoutingModule</text>
</g>
<!-- RecipePageRoutingModule&#45;&gt;RecipePageModule -->
<g id="edge24" class="edge">
<title>RecipePageRoutingModule&#45;&gt;RecipePageModule</title>
<path fill="none" stroke="black" d="M3194.94,-122.22C3194.94,-122.22 3194.94,-143.73 3194.94,-143.73"/>
<polygon fill="black" stroke="black" points="3191.44,-143.73 3194.94,-153.73 3198.44,-143.73 3191.44,-143.73"/>
</g>
<!-- HeaderComponent -->
<g id="node29" class="node">
<title>HeaderComponent</title>
<polygon fill="#ffffb3" stroke="black" points="1004.74,-190 883.26,-190 883.26,-154 1004.74,-154 1004.74,-190"/>
<text text-anchor="middle" x="944" y="-167.8" font-family="Times,serif" font-size="14.00">HeaderComponent</text>
</g>
<!-- HeaderComponent&#45;&gt;SharedModule -->
<g id="edge26" class="edge">
<title>HeaderComponent&#45;&gt;SharedModule</title>
<path fill="none" stroke="black" d="M944,-153.92C944,-152.15 944,-151 944,-151 944,-151 1502.58,-151 1502.58,-151 1502.58,-151 1502.58,-132.04 1502.58,-132.04"/>
<polygon fill="black" stroke="black" points="1506.08,-132.04 1502.58,-122.04 1499.08,-132.04 1506.08,-132.04"/>
</g>
<!-- UpdateGoalModalComponent -->
<g id="node30" class="node">
<title>UpdateGoalModalComponent</title>
<polygon fill="#ffffb3" stroke="black" points="864.52,-190 679.48,-190 679.48,-154 864.52,-154 864.52,-190"/>
<text text-anchor="middle" x="772" y="-167.8" font-family="Times,serif" font-size="14.00">UpdateGoalModalComponent</text>
</g>
<!-- UpdateGoalModalComponent&#45;&gt;SharedModule -->
<g id="edge27" class="edge">
<title>UpdateGoalModalComponent&#45;&gt;SharedModule</title>
<path fill="none" stroke="black" d="M772,-153.79C772,-148.45 772,-144 772,-144 772,-144 1493.63,-144 1493.63,-144 1493.63,-144 1493.63,-132.13 1493.63,-132.13"/>
<polygon fill="black" stroke="black" points="1497.13,-132.13 1493.63,-122.13 1490.13,-132.13 1497.13,-132.13"/>
</g>
</g>
</svg>
